<?xml version="1.0" encoding="UTF-8"?>
<svg version="1.1" xmlns="http://www.w3.org/2000/svg" width="500" height="500">
<path d="M0 0 C0.66257812 0.18288574 1.32515625 0.36577148 2.0078125 0.55419922 C27.77255489 7.77255489 27.77255489 7.77255489 33 13 C33.08758003 14.99964982 33.10696576 17.0023611 33.09765625 19.00390625 C33.09443359 20.21884766 33.09121094 21.43378906 33.08789062 22.68554688 C33.07951172 23.96494141 33.07113281 25.24433594 33.0625 26.5625 C33.05798828 27.84576172 33.05347656 29.12902344 33.04882812 30.45117188 C33.03699545 33.63416022 33.02051068 36.81705762 33 40 C32.18547363 39.63032104 32.18547363 39.63032104 31.35449219 39.25317383 C25.24467769 36.48333093 19.1252189 33.73559323 13 31 C11.81921875 30.47019531 10.6384375 29.94039062 9.421875 29.39453125 C2.72959404 26.48678885 -3.86302785 24.49884181 -11 23 C-11.77585449 22.83612793 -12.55170898 22.67225586 -13.35107422 22.50341797 C-29.31339778 19.17453862 -44.66361533 17.64152134 -61 18 C-62.09957031 18.01675781 -63.19914063 18.03351563 -64.33203125 18.05078125 C-89.12413481 19.04246539 -112.45850726 25.50069102 -134.25732422 37.08007812 C-135.77638909 37.8819605 -137.31085642 38.65452913 -138.84765625 39.421875 C-145.76253604 42.9679672 -151.97984217 47.38859034 -158.25170898 51.95019531 C-159.30273804 52.71154785 -159.30273804 52.71154785 -160.375 53.48828125 C-161.00148438 53.94759033 -161.62796875 54.40689941 -162.2734375 54.88012695 C-164 56 -164 56 -167 57 C-167 57.66 -167 58.32 -167 59 C-168.6205424 60.40903778 -170.29882456 61.75194773 -172 63.0625 C-177.558753 67.50088418 -183.75634108 72.51268216 -187 79 C-187.66 79 -188.32 79 -189 79 C-189 79.66 -189 80.32 -189 81 C-189.66 81 -190.32 81 -191 81 C-191.28069336 81.58773193 -191.56138672 82.17546387 -191.85058594 82.78100586 C-192.91062024 84.82744846 -194.05660368 86.62881881 -195.390625 88.50390625 C-195.84977295 89.15617187 -196.3089209 89.8084375 -196.78198242 90.48046875 C-197.26642822 91.16753906 -197.75087402 91.85460937 -198.25 92.5625 C-202.61806434 98.8492336 -206.55045669 105.15610608 -210 112 C-210.66485384 113.28151511 -211.3302586 114.56274448 -211.99609375 115.84375 C-220.92860246 133.17413292 -226.57197407 151.60402543 -229 171 C-229.16628906 172.31291016 -229.16628906 172.31291016 -229.3359375 173.65234375 C-233.05985139 209.53275733 -227.27188979 250.62988961 -207.03125 281.15234375 C-206 283 -206 283 -206 286 C-205.34 286 -204.68 286 -204 286 C-203.52820313 286.88751953 -203.52820313 286.88751953 -203.046875 287.79296875 C-200.65559003 292.20820275 -198.18824641 296.10325438 -195 300 C-195 300.66 -195 301.32 -195 302 C-194.34 302 -193.68 302 -193 302 C-190.69 304.97 -188.38 307.94 -186 311 C-185.67 245.33 -185.34 179.66 -185 112 C-174.44 112 -163.88 112 -153 112 C-147.3804046 123.2391908 -147.3804046 123.2391908 -145.0625 128.93359375 C-144.81508057 129.53704117 -144.56766113 130.14048859 -144.31274414 130.76222229 C-143.53819022 132.65251943 -142.76867171 134.54480423 -142 136.4375 C-138.85114482 144.16895716 -135.64756361 151.85476414 -132.15234375 159.43774414 C-130.29401198 163.56977633 -128.64970672 167.78136351 -127 172 C-123.93741585 179.75367869 -123.93741585 179.75367869 -120.5625 187.375 C-118.8569718 191.06979396 -117.23662685 194.78461599 -115.6953125 198.55078125 C-115.28337646 199.55641113 -114.87144043 200.56204102 -114.44702148 201.59814453 C-112.62651762 206.06347811 -110.80935691 210.53013725 -109 215 C-106.69772985 212.69772985 -106.0507345 210.52654925 -104.96875 207.5078125 C-103.85505266 204.62477341 -102.56736464 201.85839624 -101.25 199.0625 C-98.84713474 193.92964673 -96.6306378 188.75119187 -94.5 183.5 C-92.06179595 177.50269257 -89.47099669 171.61312627 -86.72265625 165.75 C-80.69739452 152.76019102 -75.14690903 139.52677447 -69.68798828 126.29052734 C-69.39134277 125.57719238 -69.09469727 124.86385742 -68.7890625 124.12890625 C-68.53850098 123.52119385 -68.28793945 122.91348145 -68.02978516 122.28735352 C-66.46280298 118.80678072 -64.70703369 115.41406738 -63 112 C-55.08 112 -47.16 112 -39 112 C-39.90402264 116.52011319 -41.26444511 120.2774901 -43.125 124.4375 C-43.43703369 125.14487305 -43.74906738 125.85224609 -44.07055664 126.58105469 C-46.06080872 131.04425619 -48.19604677 135.40621822 -50.4375 139.75 C-53.72326692 146.19657179 -56.3851736 152.80857261 -59.01928711 159.54370117 C-61.02153632 164.63554893 -63.13747419 169.62776073 -65.5 174.5625 C-68.16786857 180.14683398 -70.62666246 185.78455774 -73 191.5 C-75.87346117 198.41209883 -78.91808309 205.1936122 -82.14453125 211.94921875 C-83.61125107 215.08233758 -84.94856978 218.25660981 -86.26171875 221.45703125 C-86.65367432 222.40465332 -87.04562988 223.35227539 -87.44946289 224.32861328 C-88.21721438 226.19577216 -88.97345506 228.06771728 -89.71655273 229.94482422 C-91.73295794 234.82954633 -93.29701313 238.17668588 -98 241 C-101.57312995 242.19104332 -104.54553322 242.20528823 -108.3125 242.25 C-110.25576172 242.28867187 -110.25576172 242.28867187 -112.23828125 242.328125 C-116.25294802 241.977936 -118.60761122 241.13464936 -122 239 C-123.64392487 236.63685799 -124.79342649 234.58233445 -126 232 C-126.46277344 231.04609375 -126.92554688 230.0921875 -127.40234375 229.109375 C-130.4908416 222.60231082 -133.19876892 216.01466195 -135.73828125 209.27734375 C-138.32194571 202.56621533 -141.25325395 195.99956576 -144.13085938 189.41064453 C-145.40058431 186.5032974 -146.66934757 183.59553338 -147.9375 180.6875 C-148.36699951 179.70305908 -148.79649902 178.71861816 -149.23901367 177.7043457 C-152.19287889 170.91275074 -155.06620162 164.09298392 -157.84350586 157.22729492 C-159.12291845 154.07332905 -160.4753719 151.04925619 -162 148 C-162.33 218.29 -162.66 288.58 -163 361 C-167.98247762 360.00350448 -169.71474788 359.04097028 -173.625 356.0625 C-175.03652344 354.99708984 -175.03652344 354.99708984 -176.4765625 353.91015625 C-177.30929688 353.27980469 -178.14203125 352.64945312 -179 352 C-179.99 351.34 -180.98 350.68 -182 350 C-182 349.34 -182 348.68 -182 348 C-182.58177002 347.73823975 -183.16354004 347.47647949 -183.76293945 347.20678711 C-186.13103358 345.92931365 -187.82556268 344.52180145 -189.79296875 342.69140625 C-190.50098633 342.03285645 -191.20900391 341.37430664 -191.93847656 340.69580078 C-192.6806543 339.99181152 -193.42283203 339.28782227 -194.1875 338.5625 C-194.95416992 337.83530762 -195.72083984 337.10811523 -196.51074219 336.35888672 C-202.1845364 330.91054926 -207.3192307 325.33328438 -212 319 C-212.50515137 318.32678711 -213.01030273 317.65357422 -213.53076172 316.95996094 C-220.01420614 308.30158315 -226.21751737 299.73475755 -231 290 C-231.55945313 288.9275 -232.11890625 287.855 -232.6953125 286.75 C-242.71802251 267.31201695 -249.76557742 246.65563729 -253 225 C-253.10296387 224.3395166 -253.20592773 223.6790332 -253.31201172 222.99853516 C-256.62932633 201.08748873 -255.79714193 178.77881948 -252 157 C-251.86609863 156.21898926 -251.73219727 155.43797852 -251.59423828 154.63330078 C-248.55166204 137.60593776 -242.64963489 121.12792729 -235.3125 105.5 C-234.77846558 104.36220093 -234.77846558 104.36220093 -234.23364258 103.20141602 C-232.19604401 99.02135287 -229.89408833 95.30766381 -227.12280273 91.57714844 C-225.61512762 89.45938779 -224.50965265 87.21018835 -223.375 84.875 C-220.52598997 79.49600971 -216.97585407 75.11827971 -212.95849609 70.59130859 C-210.6900989 68.03240162 -208.61632309 65.49785127 -206.7890625 62.61328125 C-206.19867188 61.75089844 -205.60828125 60.88851562 -205 60 C-204.34 60 -203.68 60 -203 60 C-203 59.34 -203 58.68 -203 58 C-202.34 58 -201.68 58 -201 58 C-201 57.34 -201 56.68 -201 56 C-200.34 56 -199.68 56 -199 56 C-199 55.34 -199 54.68 -199 54 C-198.34 54 -197.68 54 -197 54 C-196.731875 53.360625 -196.46375 52.72125 -196.1875 52.0625 C-195 50 -195 50 -192 49 C-192 48.34 -192 47.68 -192 47 C-191.34 47 -190.68 47 -190 47 C-190 46.34 -190 45.68 -190 45 C-189.34 45 -188.68 45 -188 45 C-188 44.34 -188 43.68 -188 43 C-186.22369135 41.44920532 -184.44878369 40.03237554 -182.5625 38.625 C-181.98846436 38.1916333 -181.41442871 37.7582666 -180.82299805 37.31176758 C-178.8902393 35.8630326 -176.94704068 34.42947881 -175 33 C-174.29939453 32.48453613 -173.59878906 31.96907227 -172.87695312 31.43798828 C-157.98582758 20.54391912 -157.98582758 20.54391912 -150.625 17.19921875 C-148.51807698 16.236681 -146.48536237 15.22255085 -144.4375 14.14453125 C-134.89438048 9.15044507 -125.26175919 5.2588526 -115 2 C-113.80503906 1.61972656 -112.61007813 1.23945312 -111.37890625 0.84765625 C-75.57142881 -9.92303787 -35.95939797 -10.13156038 0 0 Z " fill="#E0BD82" transform="translate(307,61)"/>
<path d="M0 0 C17.46935864 9.31699128 35.91175938 24.11259804 48 40 C48 40.66 48 41.32 48 42 C48.66 42 49.32 42 50 42 C54 46.47058824 54 46.47058824 54 49 C54.66 49 55.32 49 56 49 C57.63519864 51.19748814 59.14292329 53.3892515 60.625 55.6875 C61.29378174 56.71363403 61.29378174 56.71363403 61.97607422 57.76049805 C62.89006575 59.16835825 63.80037317 60.57861687 64.70703125 61.99121094 C65.84282071 63.75580226 66.99801568 65.50787151 68.15625 67.2578125 C73.83702486 76.07203063 78.03058185 85.3274412 82 95 C82.30824707 95.73959961 82.61649414 96.47919922 82.93408203 97.24121094 C96.85670023 131.06922928 101.45934741 169.91239473 94.40576172 205.90234375 C94.0260135 207.86551864 93.70041678 209.83895109 93.37890625 211.8125 C91.45223287 222.91779752 87.79638973 233.41439997 84 244 C83.75378906 244.69657715 83.50757813 245.3931543 83.25390625 246.11083984 C78.00450187 260.7802559 70.32306506 274.53409174 61 287 C59.58245023 288.95769419 58.16580362 290.91604263 56.75 292.875 C55.50317115 294.58564918 54.25346032 296.294204 53 298 C52.46890625 298.76570313 51.9378125 299.53140625 51.390625 300.3203125 C50.93171875 300.87460937 50.4728125 301.42890625 50 302 C49.34 302 48.68 302 48 302 C47.77570313 302.54011719 47.55140625 303.08023437 47.3203125 303.63671875 C45.58237806 306.74751855 43.28967058 309.22261059 40.875 311.8125 C40.38580078 312.34077393 39.89660156 312.86904785 39.39257812 313.41333008 C29.23235534 324.25588155 29.23235534 324.25588155 24 326 C24 326.66 24 327.32 24 328 C21.98828125 329.65625 21.98828125 329.65625 19.3125 331.5 C18.44238281 332.1084375 17.57226562 332.716875 16.67578125 333.34375 C14.1659108 334.89730485 11.77041639 336.00165175 9 337 C9 337.66 9 338.32 9 339 C6.86102966 340.48129843 4.74282176 341.81661821 2.5 343.125 C1.82364502 343.52315918 1.14729004 343.92131836 0.45043945 344.33154297 C-47.10780144 371.9665148 -102.43448142 380.62821283 -155.90625 366.69921875 C-170.78603629 362.63960451 -184.36813699 357.19459437 -198 350 C-198 341.09 -198 332.18 -198 323 C-193.98459697 324.00385076 -190.92809451 325.61908522 -187.375 327.625 C-148.02108862 349.09692755 -100.10742051 354.26440787 -57 342.1875 C-49.75822616 340.0542643 -42.85532615 337.49255795 -35.984375 334.35546875 C-33.36915879 333.16766767 -30.76152638 332.16214841 -28.0625 331.1875 C-22.77771573 329.12450282 -18.05961941 326.17030246 -13.26391602 323.17260742 C-9.92755149 321.09559805 -6.70921127 319.31412056 -3 318 C-3 317.34 -3 316.68 -3 316 C0 314 0 314 3 314 C3 313.34 3 312.68 3 312 C5.08203125 310.08984375 5.08203125 310.08984375 7.8125 307.9375 C8.70582031 307.22464844 9.59914063 306.51179688 10.51953125 305.77734375 C13 304 13 304 16 303 C16 302.34 16 301.68 16 301 C16.66 301 17.32 301 18 301 C18.3403125 300.1646875 18.3403125 300.1646875 18.6875 299.3125 C20.37550036 296.33840412 22.46676517 294.27991135 25 292 C25.66 292 26.32 292 27 292 C27.35578125 291.18015625 27.35578125 291.18015625 27.71875 290.34375 C29.89340047 286.36573085 32.98744565 283.10574605 35.90625 279.65625 C37.63841562 277.45872645 38.89397443 275.54866762 40 273 C40.66 273 41.32 273 42 273 C42.25265625 272.30003906 42.5053125 271.60007812 42.765625 270.87890625 C44.61418984 266.56753824 47.2090062 262.7820041 49.734375 258.83984375 C55.2982381 249.6821767 59.30930947 240.10321282 62.625 229.9375 C63.01107422 228.76372803 63.39714844 227.58995605 63.79492188 226.38061523 C72.49958447 199.32263708 74.55702008 171.11595407 70 143 C69.80535156 141.76636719 69.61070312 140.53273437 69.41015625 139.26171875 C67.60669794 129.15594942 64.46078355 119.64203999 61 110 C60.57460938 108.79730469 60.14921875 107.59460938 59.7109375 106.35546875 C55.9789035 96.20674404 50.81177113 87.14706912 45.1015625 77.99609375 C44 76 44 76 44 74 C43.34 74 42.68 74 42 74 C40.83424449 72.14850595 39.67499191 70.29263362 38.546875 68.41796875 C34.78677624 62.54044064 30.30017177 57.24889146 25.35888672 52.33813477 C24.41491531 51.39865746 24.41491531 51.39865746 23.45187378 50.44020081 C22.97275543 49.96493454 22.49363708 49.48966827 22 49 C21.99576806 50.06590079 21.99153612 51.13180159 21.98717594 52.2300024 C21.88413612 78.12553871 21.7754078 104.02104632 21.66066074 129.91653347 C21.60530341 142.43921904 21.55181736 154.96190747 21.50268555 167.48461914 C21.45987439 178.39512732 21.41360427 189.3056143 21.36312145 200.21608979 C21.33649571 205.99695777 21.31164211 211.77782148 21.29092598 217.55871391 C21.27139704 222.99309925 21.24726471 228.42744416 21.21950912 233.86179352 C21.21011878 235.86254965 21.2024507 237.86331468 21.19658089 239.86408424 C21.18835325 242.58317599 21.17408631 245.30216872 21.15821838 248.02122498 C21.15724028 248.82373843 21.15626217 249.62625189 21.15525442 250.45308393 C21.11412121 255.88587879 21.11412121 255.88587879 20 257 C18.52347336 257.09880797 17.04232764 257.13079245 15.5625 257.1328125 C14.22058594 257.13474609 14.22058594 257.13474609 12.8515625 257.13671875 C11.91054688 257.13285156 10.96953125 257.12898438 10 257.125 C9.05898438 257.12886719 8.11796875 257.13273437 7.1484375 257.13671875 C6.25382813 257.13542969 5.35921875 257.13414062 4.4375 257.1328125 C3.61121094 257.13168457 2.78492188 257.13055664 1.93359375 257.12939453 C0 257 0 257 -1 256 C-1.09439978 253.73008113 -1.11742226 251.45718033 -1.11352539 249.18530273 C-1.11364593 248.46159265 -1.11376646 247.73788256 -1.11389065 246.99224186 C-1.11314163 244.63932837 -1.10551393 242.28649315 -1.09765625 239.93359375 C-1.0961868 238.48506712 -1.09516611 237.03653996 -1.09460449 235.5880127 C-1.08935201 230.20450039 -1.07539092 224.82099943 -1.0625 219.4375 C-1.041875 207.413125 -1.02125 195.38875 -1 183 C-26.74 183 -52.48 183 -79 183 C-78.96038543 206.97938127 -78.96038543 206.97938127 -78.90991211 230.95874023 C-78.90539551 235.5880127 -78.90539551 235.5880127 -78.90455627 237.75257874 C-78.90301689 239.27003777 -78.89949208 240.78749555 -78.89442444 242.3049469 C-78.88714562 244.59842059 -78.88609263 246.89181929 -78.88647461 249.18530273 C-78.884254 250.47991928 -78.88203339 251.77453583 -78.87974548 253.10838318 C-79 256 -79 256 -80 257 C-81.47652664 257.09880797 -82.95767236 257.13079245 -84.4375 257.1328125 C-85.77941406 257.13474609 -85.77941406 257.13474609 -87.1484375 257.13671875 C-88.08945312 257.13285156 -89.03046875 257.12898438 -90 257.125 C-90.94101562 257.12886719 -91.88203125 257.13273437 -92.8515625 257.13671875 C-93.74617188 257.13542969 -94.64078125 257.13414062 -95.5625 257.1328125 C-96.38878906 257.13168457 -97.21507812 257.13055664 -98.06640625 257.12939453 C-100 257 -100 257 -101 256 C-101.1041905 254.57616033 -101.13961325 253.14721592 -101.14717102 251.71958923 C-101.15432632 250.79580475 -101.16148163 249.87202026 -101.16885376 248.92024231 C-101.17154266 247.89847397 -101.17423157 246.87670563 -101.17700195 245.82397461 C-101.18357315 244.75403259 -101.19014435 243.68409058 -101.19691467 242.58172607 C-101.21670996 239.02193134 -101.2283263 235.46217898 -101.23828125 231.90234375 C-101.24235678 230.68863161 -101.2464323 229.47491947 -101.25063133 228.22442818 C-101.27152219 221.79618625 -101.28580881 215.36796584 -101.29516602 208.93969727 C-101.30621519 202.30066439 -101.34058962 195.66197648 -101.38033772 189.02304745 C-101.40650062 183.91945273 -101.41485778 178.81593806 -101.41844749 173.71228218 C-101.42331706 171.26550597 -101.43494149 168.81873341 -101.45348549 166.37202263 C-101.47786081 162.9416748 -101.47691388 159.51219523 -101.4699707 156.08178711 C-101.48278076 155.07418839 -101.49559082 154.06658966 -101.50878906 153.02845764 C-101.46195217 146.66427896 -100.25771378 142.43707452 -97 137 C-96.33919252 135.43942089 -95.70024066 133.86912776 -95.09765625 132.28515625 C-92.73228763 126.24982635 -90.10755338 120.34332657 -87.4375 114.4375 C-86.95603516 113.34630859 -86.47457031 112.25511719 -85.97851562 111.13085938 C-85.50994141 110.09638672 -85.04136719 109.06191406 -84.55859375 107.99609375 C-84.13892334 107.05950928 -83.71925293 106.1229248 -83.28686523 105.15795898 C-82 103 -82 103 -79 102 C-79 121.47 -79 140.94 -79 161 C-53.26 161 -27.52 161 -1 161 C-1.01160156 149.46160156 -1.02320313 137.92320312 -1.03515625 126.03515625 C-1.04026263 118.74804665 -1.04511763 111.46093834 -1.04882812 104.17382812 C-1.05477153 92.59415242 -1.06177434 81.01448397 -1.07543945 69.43481445 C-1.08538509 61.00299669 -1.09185314 52.57118479 -1.09408849 44.13936132 C-1.09539581 39.67192608 -1.09848295 35.2045076 -1.10573006 30.73707771 C-1.11248838 26.5371584 -1.11461735 22.33726287 -1.11310768 18.13733864 C-1.11338409 16.59131491 -1.11539033 15.04529044 -1.11920547 13.49927139 C-1.1241398 11.39764224 -1.12299928 9.29610428 -1.12025452 7.19447327 C-1.12163721 5.42601343 -1.12163721 5.42601343 -1.12304783 3.62182713 C-1 1 -1 1 0 0 Z " fill="#E0BD80" transform="translate(357,83)"/>
<path d="M0 0 C0.99 0.33 1.98 0.66 3 1 C2.67 1.66 2.34 2.32 2 3 C1.89424401 5.70562364 1.84951336 8.38607462 1.84851074 11.09230042 C1.84427833 11.93859904 1.84004592 12.78489766 1.83568525 13.6568417 C1.82260928 16.50894109 1.8166231 19.36101249 1.81054688 22.21313477 C1.80260853 24.25119194 1.79422091 26.28924741 1.78541565 28.32730103 C1.76733023 32.7236793 1.75232491 37.12005374 1.73963928 41.51645088 C1.71946558 48.46053104 1.69180771 55.40456874 1.66296387 62.34861755 C1.59768653 78.34169776 1.54229157 94.33480942 1.48697662 110.32792664 C1.43618768 124.98444573 1.383347 139.64094942 1.32245111 154.29743046 C1.29402472 161.20823716 1.2704568 168.11903872 1.25052643 175.02987492 C1.23718249 179.31939116 1.219768 183.6088837 1.20121574 187.89838028 C1.19343007 189.89591437 1.18737357 191.89345601 1.18312263 193.89100075 C1.17711751 196.6056024 1.16509014 199.32011064 1.15148926 202.03468323 C1.15119327 202.83583244 1.15089728 203.63698166 1.15059233 204.46240813 C1.11409298 209.88590702 1.11409298 209.88590702 0 211 C-1.47652664 211.09880797 -2.95767236 211.13079245 -4.4375 211.1328125 C-5.77941406 211.13474609 -5.77941406 211.13474609 -7.1484375 211.13671875 C-8.08945312 211.13285156 -9.03046875 211.12898437 -10 211.125 C-10.94101562 211.12886719 -11.88203125 211.13273438 -12.8515625 211.13671875 C-13.74617188 211.13542969 -14.64078125 211.13414062 -15.5625 211.1328125 C-16.38878906 211.13168457 -17.21507812 211.13055664 -18.06640625 211.12939453 C-20 211 -20 211 -21 210 C-21.09439978 207.73008113 -21.11742226 205.45718033 -21.11352539 203.18530273 C-21.11364593 202.46159265 -21.11376646 201.73788256 -21.11389065 200.99224186 C-21.11314163 198.63932837 -21.10551393 196.28649315 -21.09765625 193.93359375 C-21.0961868 192.48506712 -21.09516611 191.03653996 -21.09460449 189.5880127 C-21.08935201 184.20450039 -21.07539092 178.82099943 -21.0625 173.4375 C-21.041875 161.413125 -21.02125 149.38875 -21 137 C-46.74 137 -72.48 137 -99 137 C-98.96038543 160.97938127 -98.96038543 160.97938127 -98.90991211 184.95874023 C-98.90539551 189.5880127 -98.90539551 189.5880127 -98.90455627 191.75257874 C-98.90301689 193.27003777 -98.89949208 194.78749555 -98.89442444 196.3049469 C-98.88714562 198.59842059 -98.88609263 200.89181929 -98.88647461 203.18530273 C-98.884254 204.47991928 -98.88203339 205.77453583 -98.87974548 207.10838318 C-99 210 -99 210 -100 211 C-101.47652664 211.09880797 -102.95767236 211.13079245 -104.4375 211.1328125 C-105.77941406 211.13474609 -105.77941406 211.13474609 -107.1484375 211.13671875 C-108.08945312 211.13285156 -109.03046875 211.12898437 -110 211.125 C-110.94101562 211.12886719 -111.88203125 211.13273438 -112.8515625 211.13671875 C-113.74617188 211.13542969 -114.64078125 211.13414062 -115.5625 211.1328125 C-116.38878906 211.13168457 -117.21507812 211.13055664 -118.06640625 211.12939453 C-120 211 -120 211 -121 210 C-121.09558036 208.55786001 -121.12188394 207.11105921 -121.12025452 205.66575623 C-121.12162918 204.73041046 -121.12300385 203.7950647 -121.12442017 202.83137512 C-121.12082489 201.79703842 -121.11722961 200.76270172 -121.11352539 199.69702148 C-121.11367142 198.61422913 -121.11381744 197.53143677 -121.1139679 196.41583252 C-121.11326823 192.81756626 -121.10547333 189.21935103 -121.09765625 185.62109375 C-121.09579226 183.13387582 -121.09436827 180.64665752 -121.09336853 178.15943909 C-121.0899335 172.26978809 -121.08204277 166.3801561 -121.07201904 160.49051291 C-121.05976246 153.12974626 -121.05437791 145.76897736 -121.04882812 138.40820312 C-121.03808815 125.27212602 -121.02120089 112.13606417 -121 99 C-120.67 99 -120.34 99 -120 99 C-120 135.3 -120 171.6 -120 209 C-110.1 208.505 -110.1 208.505 -100 208 C-100 184.24 -100 160.48 -100 136 C-80.11494364 135.67021646 -80.11494364 135.67021646 -71.66015625 135.546875 C-65.88351515 135.4625463 -60.10696684 135.37597712 -54.33056641 135.27636719 C-49.67525238 135.19622699 -45.01988533 135.12588369 -40.36431503 135.06242752 C-38.58519887 135.03643737 -36.80613131 135.00687421 -35.02713394 134.97373581 C-32.54172207 134.9280398 -30.05644312 134.89487499 -27.57080078 134.86474609 C-26.82993225 134.8482048 -26.08906372 134.83166351 -25.32574463 134.81462097 C-23.54948368 134.79973344 -21.7729413 134.89043853 -20 135 C-17.15903146 137.84096854 -17.72335387 139.76361873 -17.68115234 143.74462891 C-17.67110672 144.43742447 -17.6610611 145.13022003 -17.65071106 145.8440094 C-17.61977447 148.13818518 -17.60281524 150.43224373 -17.5859375 152.7265625 C-17.56723423 154.31555192 -17.54766146 155.90453133 -17.5272522 157.49349976 C-17.47583591 161.67901718 -17.43626123 165.86456683 -17.39910889 170.05023193 C-17.35912857 174.32002803 -17.30800907 178.58968895 -17.2578125 182.859375 C-17.16094085 191.23949113 -17.07657228 199.61967393 -17 208 C-14.68756208 208.02685412 -12.3750373 208.04632841 -10.0625 208.0625 C-8.77472656 208.07410156 -7.48695313 208.08570313 -6.16015625 208.09765625 C-3.13701597 208.36532549 -3.13701597 208.36532549 -2 207 C-1.89201319 204.37677527 -1.84949541 201.7793959 -1.84851074 199.15530396 C-1.84427833 198.32352155 -1.84004592 197.49173914 -1.83568525 196.6347512 C-1.82258756 193.82567228 -1.81661809 191.01662179 -1.81054688 188.20751953 C-1.80261007 186.20241113 -1.79422258 184.19730447 -1.78541565 182.19219971 C-1.76731715 177.86347073 -1.75231637 173.53474569 -1.73963928 169.20599747 C-1.7194738 162.36646311 -1.69181351 155.52697197 -1.66296387 148.68746948 C-1.60278308 134.16666653 -1.55099423 119.64583768 -1.5 105.125 C-1.44496197 89.45808766 -1.38849899 73.7911884 -1.32245111 58.124318 C-1.29405307 51.32027685 -1.27047418 44.51624083 -1.25052643 37.71216989 C-1.23716173 33.4837401 -1.21974776 29.25533413 -1.20121574 25.02692413 C-1.19344403 23.06086961 -1.18738133 21.09480749 -1.18312263 19.12874222 C-1.17709669 16.45200847 -1.16505841 13.77536787 -1.15148926 11.09866333 C-1.15119327 10.31433052 -1.15089728 9.52999771 -1.15059233 8.72189724 C-1.12906392 5.54888691 -1.01096472 3.03289416 0 0 Z " fill="#E0C695" transform="translate(377,129)"/>
<path d="M0 0 C0.33 0 0.66 0 1 0 C1.495 4.95 1.495 4.95 2 10 C2.33 10 2.66 10 3 10 C3.15385189 28.85379449 3.30188655 47.70762606 3.4429636 66.56152058 C3.50860176 75.31537063 3.5761557 84.06919813 3.64819336 92.82299805 C3.71096405 100.45129111 3.77016708 108.07960201 3.82505554 115.70795602 C3.8542537 119.74846433 3.88525896 123.78894081 3.92053413 127.82940102 C3.95366239 131.63040008 3.98202956 135.4314046 4.00670624 139.23246765 C4.01662102 140.62930859 4.02829242 142.02613831 4.04183006 143.42294884 C4.0600215 145.32675199 4.07134272 147.23061712 4.08229065 149.13447571 C4.09058679 150.20099019 4.09888292 151.26750467 4.10743046 152.36633778 C4 155 4 155 3 158 C-0.49990841 160.58770198 -4.34483945 160.23961397 -8.5065918 160.15112305 C-9.25659454 160.14326782 -10.00659729 160.1354126 -10.77932739 160.12731934 C-13.2528676 160.09879156 -15.72590569 160.05552818 -18.19921875 160.01171875 C-19.91745501 159.98808195 -21.63570193 159.9652093 -23.35395813 159.94306946 C-26.95102354 159.89457493 -30.54789476 159.83921328 -34.14477539 159.77856445 C-38.76522695 159.70087039 -43.38574151 159.63657488 -48.00645733 159.57690716 C-51.55198908 159.53029156 -55.09742939 159.47850657 -58.64286232 159.42493629 C-60.34737249 159.39945386 -62.05190087 159.37516096 -63.75644493 159.3520565 C-66.13160641 159.31871634 -68.50656642 159.27887584 -70.8815918 159.23706055 C-71.59171921 159.22816299 -72.30184662 159.21926544 -73.03349304 159.21009827 C-77.88550527 159.11449473 -77.88550527 159.11449473 -79 158 C-79.09386381 156.1281906 -79.11743804 154.2528194 -79.11352539 152.37866211 C-79.11344986 151.17749252 -79.11337433 149.97632294 -79.11329651 148.73875427 C-79.10813522 147.4314888 -79.10297394 146.12422333 -79.09765625 144.77734375 C-79.09579198 143.43355868 -79.09436812 142.08977293 -79.09336853 140.74598694 C-79.08954402 137.20317723 -79.07971432 133.6604083 -79.06866455 130.11761475 C-79.05844899 126.50484773 -79.0538706 122.89207416 -79.04882812 119.27929688 C-79.03809198 112.1861812 -79.02101636 105.09309326 -79 98 C-78.67 98 -78.34 98 -78 98 C-78 117.47 -78 136.94 -78 157 C-52.26 157 -26.52 157 0 157 C0 105.19 0 53.38 0 0 Z " fill="#EFDAB1" transform="translate(356,87)"/>
<path d="M0 0 C0.33 0 0.66 0 1 0 C1 36.3 1 72.6 1 110 C10.9 109.505 10.9 109.505 21 109 C21 85.24 21 61.48 21 37 C47.07 37 73.14 37 100 37 C100 37.33 100 37.66 100 38 C74.26 38 48.52 38 22 38 C22.03961457 61.97938127 22.03961457 61.97938127 22.09008789 85.95874023 C22.09460449 90.5880127 22.09460449 90.5880127 22.09544373 92.75257874 C22.09698311 94.27003777 22.10050792 95.78749555 22.10557556 97.3049469 C22.11285438 99.59842059 22.11390737 101.89181929 22.11352539 104.18530273 C22.115746 105.47991928 22.11796661 106.77453583 22.12025452 108.10838318 C22 111 22 111 21 112 C19.52347336 112.09880797 18.04232764 112.13079245 16.5625 112.1328125 C15.22058594 112.13474609 15.22058594 112.13474609 13.8515625 112.13671875 C12.44003906 112.13091797 12.44003906 112.13091797 11 112.125 C9.58847656 112.13080078 9.58847656 112.13080078 8.1484375 112.13671875 C7.25382812 112.13542969 6.35921875 112.13414062 5.4375 112.1328125 C4.61121094 112.13168457 3.78492188 112.13055664 2.93359375 112.12939453 C1 112 1 112 0 111 C-0.09558036 109.55786001 -0.12188394 108.11105921 -0.12025452 106.66575623 C-0.12162918 105.73041046 -0.12300385 104.7950647 -0.12442017 103.83137512 C-0.12082489 102.79703842 -0.11722961 101.76270172 -0.11352539 100.69702148 C-0.11367142 99.61422913 -0.11381744 98.53143677 -0.1139679 97.41583252 C-0.11326823 93.81756626 -0.10547333 90.21935103 -0.09765625 86.62109375 C-0.09579226 84.13387582 -0.09436827 81.64665752 -0.09336853 79.15943909 C-0.0899335 73.26978809 -0.08204277 67.3801561 -0.07201904 61.49051291 C-0.05976246 54.12974626 -0.05437791 46.76897736 -0.04882812 39.40820312 C-0.03808815 26.27212602 -0.02120089 13.13606417 0 0 Z " fill="#F5E4B3" transform="translate(256,228)"/>
<path d="M0 0 C0.33 0 0.66 0 1 0 C1 70.95 1 141.9 1 215 C0.34 215.33 -0.32 215.66 -1 216 C-3.03144641 215.06553465 -5.03533587 214.06775224 -7 213 C-4.92446352 212.4465236 -3.15634036 212 -1 212 C-0.67 142.04 -0.34 72.08 0 0 Z " fill="#D6BA91" transform="translate(142,205)"/>
<path d="M0 0 C1.65 0.99 3.3 1.98 5 3 C4.34 3.66 3.68 4.32 3 5 C2.67 4.67 2.34 4.34 2 4 C1.67 55.81 1.34 107.62 1 161 C0.67 161 0.34 161 0 161 C-0.15374849 140.15590209 -0.30178578 119.31177065 -0.4429636 98.46758366 C-0.50864431 88.78997238 -0.57621674 79.11238112 -0.64819336 69.43481445 C-0.71089984 61.00302014 -0.77010715 52.57120989 -0.82505554 44.13936132 C-0.8542926 39.6719098 -0.88532046 35.20448645 -0.92053413 30.73707771 C-0.95358398 26.53718536 -0.98197567 22.33728797 -1.00670624 18.13733864 C-1.0166471 16.59130385 -1.02832856 15.04527918 -1.04183006 13.49927139 C-1.05993016 11.3976707 -1.07191727 9.29612414 -1.08229065 7.19447327 C-1.09058679 6.01550004 -1.09888292 4.83652681 -1.10743046 3.62182713 C-1 1 -1 1 0 0 Z " fill="#D6BD94" transform="translate(357,83)"/>
<path d="M0 0 C0.33 0 0.66 0 1 0 C2.1121819 15.17343622 2.3219458 30.35456558 2.5625 45.5625 C2.60579549 48.1347711 2.64941286 50.70703681 2.69335938 53.27929688 C2.79928084 59.51947528 2.9008567 65.75971037 3 72 C8.94 72.33 14.88 72.66 21 73 C21 73.33 21 73.66 21 74 C17.68751813 74.02888146 14.37506833 74.04675799 11.0625 74.0625 C10.11697266 74.07087891 9.17144531 74.07925781 8.19726562 74.08789062 C6.84858398 74.09272461 6.84858398 74.09272461 5.47265625 74.09765625 C4.64000244 74.10289307 3.80734863 74.10812988 2.94946289 74.11352539 C1 74 1 74 0 73 C-0.09439978 70.73008113 -0.11742226 68.45718033 -0.11352539 66.18530273 C-0.11367142 65.47314606 -0.11381744 64.76098938 -0.1139679 64.0272522 C-0.1132687 61.66266888 -0.10547606 59.29816339 -0.09765625 56.93359375 C-0.09579209 55.29834537 -0.09436818 53.66309643 -0.09336853 52.02784729 C-0.08954318 47.71565215 -0.07971275 43.40349048 -0.06866455 39.09130859 C-0.0584508 34.69434054 -0.05387099 30.29736711 -0.04882812 25.90039062 C-0.03809049 17.26691169 -0.02101387 8.63346 0 0 Z " fill="#EFDDBD" transform="translate(356,266)"/>
<path d="M0 0 C21.78 0 43.56 0 66 0 C66 0.33 66 0.66 66 1 C43.7890365 3.59127907 22.2109635 3.59127907 0 1 C0 0.67 0 0.34 0 0 Z " fill="#DCC496" transform="translate(220,453)"/>
<path d="M0 0 C0.66 0.99 1.32 1.98 2 3 C1.42578125 5.05078125 1.42578125 5.05078125 0.3125 7.3125 C-0.04199219 8.05113281 -0.39648438 8.78976563 -0.76171875 9.55078125 C-1.62770749 11.26363595 -2.56413694 12.94185134 -3.55036926 14.58840942 C-5.38049041 18.89545389 -5.44037907 22.40794683 -5.43237305 27.03466797 C-5.4425647 27.92311905 -5.45275635 28.81157013 -5.46325684 29.72694397 C-5.49332887 32.64875645 -5.50264397 35.57024075 -5.51171875 38.4921875 C-5.52856972 40.52386561 -5.54672052 42.55553331 -5.56611633 44.58718872 C-5.61357696 49.92346955 -5.6434119 55.2597082 -5.66955566 60.59613037 C-5.69938096 66.04594245 -5.74590457 71.4956093 -5.79101562 76.9453125 C-5.87700402 87.6301323 -5.94436926 98.31498203 -6 109 C-6.33 109 -6.66 109 -7 109 C-7.06949845 96.83031248 -7.12281059 84.66067214 -7.15543652 72.49082661 C-7.17109501 66.83992314 -7.19233687 61.18915542 -7.22631836 55.53833008 C-7.2589049 50.08537142 -7.27685163 44.63254337 -7.28463173 39.17949486 C-7.29017648 37.09866467 -7.30100393 35.01784165 -7.31719017 32.93706703 C-7.33895483 30.02339839 -7.3419673 27.11027 -7.34057617 24.1965332 C-7.351362 23.33554016 -7.36214783 22.47454712 -7.3732605 21.58746338 C-7.34864263 16.82503352 -6.92885013 13.94949649 -4 10 C-3.23387835 8.24483837 -2.50316471 6.47370183 -1.8125 4.6875 C-1.46832031 3.80449219 -1.12414062 2.92148438 -0.76953125 2.01171875 C-0.51558594 1.34785156 -0.26164062 0.68398437 0 0 Z " fill="#DABC8D" transform="translate(264,210)"/>
<path d="M0 0 C0.33 0 0.66 0 1 0 C2.16024996 7.35745809 2.14825297 14.62542573 2.125 22.0625 C2.12886719 23.30322266 2.13273437 24.54394531 2.13671875 25.82226562 C2.13048659 31.64621764 2.07317099 37.26790416 1 43 C0.67 43 0.34 43 0 43 C-1.1192301 35.82271492 -1.14868102 28.75428571 -1.125 21.5 C-1.12886719 20.31535156 -1.13273437 19.13070312 -1.13671875 17.91015625 C-1.1299571 11.84495212 -0.93488266 5.99512052 0 0 Z " fill="#E6CBA4" transform="translate(53,233)"/>
<path d="M0 0 C5.68784683 1.7379532 7.80788839 5.21183258 11 10 C11.625 12.1875 11.625 12.1875 12 14 C12.66 14 13.32 14 14 14 C14 14.66 14 15.32 14 16 C14.99 16.33 15.98 16.66 17 17 C17.33 18.98 17.66 20.96 18 23 C18.66 23 19.32 23 20 23 C20.625 24.875 20.625 24.875 21 27 C20.34 27.66 19.68 28.32 19 29 C18.16151196 27.54462432 17.32936066 26.08559627 16.5 24.625 C16.0359375 23.81289062 15.571875 23.00078125 15.09375 22.1640625 C14 20 14 20 14 18 C13.34 18 12.68 18 12 18 C10.95703125 16.56640625 10.95703125 16.56640625 9.8125 14.5625 C7.30595129 10.35990336 4.41978763 6.59432023 1.35546875 2.78515625 C0 1 0 1 0 0 Z " fill="#E0C89E" transform="translate(387,139)"/>
<path d="M0 0 C1.32 0.33 2.64 0.66 4 1 C3.01 1.33 2.02 1.66 1 2 C1 2.66 1 3.32 1 4 C-1.28596639 5.53301304 -3.55790424 6.93883195 -5.9375 8.3125 C-6.96496338 8.91372681 -6.96496338 8.91372681 -8.01318359 9.52709961 C-9.38133377 10.32548321 -10.7514274 11.12054662 -12.12353516 11.91210938 C-13.70002769 12.82608944 -15.26372911 13.76208284 -16.82421875 14.703125 C-17.58347656 15.15171875 -18.34273438 15.6003125 -19.125 16.0625 C-19.76695312 16.44535156 -20.40890625 16.82820313 -21.0703125 17.22265625 C-23.46827983 18.18863904 -25.43922713 18.13734249 -28 18 C-25.82742194 14.74113291 -24.92828595 14.29820968 -21.4375 12.875 C-18.48805763 11.79264114 -18.48805763 11.79264114 -16 10 C-14.33382885 9.95936168 -12.66611905 9.957279 -11 10 C-10.67 9.01 -10.34 8.02 -10 7 C-8.68 7 -7.36 7 -6 7 C-5.67 6.01 -5.34 5.02 -5 4 C-4.01 4 -3.02 4 -2 4 C-2 3.34 -2 2.68 -2 2 C-1.34 2 -0.68 2 0 2 C0 1.34 0 0.68 0 0 Z " fill="#E3D0AD" transform="translate(365,418)"/>
<path d="M0 0 C0.85063694 3.15390002 1.27059635 4.91426601 0 8 C-1.25948938 9.45325697 -2.52015567 10.90560638 -3.796875 12.34375 C-5.69088824 14.9510929 -6.21331346 17.91376818 -7 21 C-7.66 21.33 -8.32 21.66 -9 22 C-9.66 22.99 -10.32 23.98 -11 25 C-12 22 -12 22 -10.7421875 18.92578125 C-10.13106256 17.71559635 -9.50798725 16.51139462 -8.875 15.3125 C-8.5545874 14.68907715 -8.2341748 14.0656543 -7.90405273 13.42333984 C-5.49550717 8.79378707 -2.87566915 4.35707447 0 0 Z " fill="#E1C597" transform="translate(83,147)"/>
<path d="M0 0 C0 0.33 0 0.66 0 1 C-15.05032523 2.75587128 -29.8527088 3.25710247 -45 3 C-45 2.67 -45 2.34 -45 2 C-29.95501423 0.43255344 -15.12511699 -0.290138 0 0 Z " fill="#EADCB9" transform="translate(286,453)"/>
<path d="M0 0 C-2.35438733 1.42944945 -3.48032433 2.08661261 -6.25 1.625 C-6.8275 1.41875 -7.405 1.2125 -8 1 C-8 1.66 -8 2.32 -8 3 C-9.89492006 3.33848652 -11.79098466 3.67056911 -13.6875 4 C-14.74324219 4.185625 -15.79898438 4.37125 -16.88671875 4.5625 C-19.64904062 4.95068074 -22.21742043 5.08259976 -25 5 C-25 4.34 -25 3.68 -25 3 C-7.339 -1.611 -7.339 -1.611 0 0 Z " fill="#DEC596" transform="translate(228,57)"/>
<path d="M0 0 C0.33 0 0.66 0 1 0 C1.05384521 2.29141286 1.09272087 4.58318188 1.125 6.875 C1.14820313 8.15117187 1.17140625 9.42734375 1.1953125 10.7421875 C1 14 1 14 -1 16 C-1.45811675 17.97235333 -1.45811675 17.97235333 -1.625 20.125 C-1.74875 21.40375 -1.8725 22.6825 -2 24 C-2.99 24.33 -3.98 24.66 -5 25 C-5 26.65 -5 28.3 -5 30 C-5.66 30 -6.32 30 -7 30 C-5.533352 24.03979217 -4.04074474 18.09556017 -2.375 12.1875 C-1.24946444 8.12142913 -0.46564913 4.19084216 0 0 Z " fill="#DFC79B" transform="translate(427,284)"/>
<path d="M0 0 C0 3.12499201 -0.53414515 4.61855668 -1.75 7.44921875 C-2.29140625 8.72055664 -2.29140625 8.72055664 -2.84375 10.01757812 C-3.2253125 10.89865234 -3.606875 11.77972656 -4 12.6875 C-4.3815625 13.58017578 -4.763125 14.47285156 -5.15625 15.39257812 C-6.09938511 17.59715643 -7.04746178 19.79947204 -8 22 C-8.33 22 -8.66 22 -9 22 C-9.6604455 15.65972319 -8.83433254 11.75149881 -5.2890625 6.43359375 C-4.86367187 5.96050781 -4.43828125 5.48742187 -4 5 C-3.34 5 -2.68 5 -2 5 C-2 3.68 -2 2.36 -2 1 C-1.34 0.67 -0.68 0.34 0 0 Z " fill="#E2CBA2" transform="translate(244,226)"/>
<path d="M0 0 C20.52043597 3.52043597 20.52043597 3.52043597 25 8 C23.741875 8.04125 22.48375 8.0825 21.1875 8.125 C20.47980469 8.14820312 19.77210938 8.17140625 19.04296875 8.1953125 C17 8 17 8 14 6 C11.61980421 5.24077573 9.22128138 4.53796735 6.8125 3.875 C6.15830078 3.69324219 5.50410156 3.51148438 4.83007812 3.32421875 C3.22137657 2.87800956 1.61085869 2.43835785 0 2 C0 1.34 0 0.68 0 0 Z " fill="#E1CAA0" transform="translate(300,60)"/>
<path d="M0 0 C7.92 0 15.84 0 24 0 C23.67 1.65 23.34 3.3 23 5 C22.67 3.68 22.34 2.36 22 1 C19.24915453 1.11411804 16.49988053 1.24085949 13.75 1.375 C12.97269531 1.4059375 12.19539063 1.436875 11.39453125 1.46875 C5.88814468 1.6661773 5.88814468 1.6661773 1 4 C0.19471111 6.05000871 0.19471111 6.05000871 0 8 C-0.99 7.67 -1.98 7.34 -3 7 C-2.01 4.69 -1.02 2.38 0 0 Z " fill="#DDC8A3" transform="translate(244,173)"/>
<path d="M0 0 C2.31 0 4.62 0 7 0 C7.33 0.66 7.66 1.32 8 2 C11.89415629 3.52001649 11.89415629 3.52001649 16 4 C16.33 5.32 16.66 6.64 17 8 C18.32 8 19.64 8 21 8 C20.67 8.99 20.34 9.98 20 11 C13.33333333 7.66666667 6.66666667 4.33333333 0 1 C0 0.67 0 0.34 0 0 Z " fill="#E3CFA2" transform="translate(319,90)"/>
<path d="M0 0 C1.65 0.99 3.3 1.98 5 3 C4.34 3.66 3.68 4.32 3 5 C2.67 4.67 2.34 4.34 2 4 C1.67 14.89 1.34 25.78 1 37 C0.67 37 0.34 37 0 37 C-0.16723554 31.89154206 -0.32783286 26.78293596 -0.48217773 21.67407227 C-0.53567262 19.93475677 -0.59100755 18.19549688 -0.64819336 16.45629883 C-0.72989627 13.96187334 -0.80506164 11.46732517 -0.87890625 8.97265625 C-0.90594131 8.19036148 -0.93297638 7.40806671 -0.96083069 6.60206604 C-1.01288386 4.73539067 -1.01187025 2.86736326 -1 1 C-0.67 0.67 -0.34 0.34 0 0 Z " fill="#D8BF96" transform="translate(357,83)"/>
<path d="M0 0 C1.32 0.33 2.64 0.66 4 1 C4 1.99 4 2.98 4 4 C4.556875 4.04125 5.11375 4.0825 5.6875 4.125 C9.86242888 5.70470282 12.06524261 9.51288597 14.375 13.1875 C15 15 15 15 14 18 C12.22461301 15.94127451 10.45465816 13.87827001 8.6875 11.8125 C7.93823242 10.9452832 7.93823242 10.9452832 7.17382812 10.06054688 C4.43774803 6.85335365 2.04686164 3.70950011 0 0 Z " fill="#E5D2AB" transform="translate(91,374)"/>
<path d="M0 0 C1.95418308 2.93127462 2.64700993 4.55834679 3 8 C2.34 8.66 1.68 9.32 1 10 C0.38161448 12.58090067 -0.01653431 15.16539655 -0.4375 17.78515625 C-0.7159375 18.88150391 -0.7159375 18.88150391 -1 20 C-1.66 20.33 -2.32 20.66 -3 21 C-2.48462048 13.86606248 -1.55994099 6.98187183 0 0 Z " fill="#E3CD9E" transform="translate(57,208)"/>
<path d="M0 0 C0.99 0.33 1.98 0.66 3 1 C-0.96 9.91 -0.96 9.91 -5 19 C-6.71778868 12.12884529 -3.27008406 6.07301326 0 0 Z " fill="#E2CDA1" transform="translate(256,194)"/>
<path d="M0 0 C0 0.99 0 1.98 0 3 C-6.6 3 -13.2 3 -20 3 C-20 2.34 -20 1.68 -20 1 C-17.04170322 0.832662 -14.08336635 0.66609948 -11.125 0.5 C-9.86236328 0.42845703 -9.86236328 0.42845703 -8.57421875 0.35546875 C-7.76855469 0.31035156 -6.96289062 0.26523437 -6.1328125 0.21875 C-5.38918457 0.17685547 -4.64555664 0.13496094 -3.87939453 0.09179688 C-2.58744125 0.0286929 -1.29349349 0 0 0 Z " fill="#E7DAAE" transform="translate(277,337)"/>
<path d="M0 0 C0.66 0.66 1.32 1.32 2 2 C1.65684211 9.20631579 1.65684211 9.20631579 -0.5 11.8125 C-0.995 12.204375 -1.49 12.59625 -2 13 C-2.33 13.99 -2.66 14.98 -3 16 C-3.66 16 -4.32 16 -5 16 C-4.19429304 12.50577615 -3.08208283 9.14682647 -1.9375 5.75 C-1.57527344 4.67234375 -1.21304687 3.5946875 -0.83984375 2.484375 C-0.56269531 1.66453125 -0.28554688 0.8446875 0 0 Z " fill="#E0C79D" transform="translate(419,314)"/>
<path d="M0 0 C0.33 0 0.66 0 1 0 C0.67 3.63 0.34 7.26 0 11 C-1.98 11.66 -3.96 12.32 -6 13 C-4.58707905 8.1725201 -2.57025846 4.2837641 0 0 Z " fill="#E1C79C" transform="translate(276,185)"/>
<path d="M0 0 C0.99 0.495 0.99 0.495 2 1 C2.625 4.0625 2.625 4.0625 3 7 C3.66 7 4.32 7 5 7 C5 8.98 5 10.96 5 13 C5.66 13 6.32 13 7 13 C7.33 15.64 7.66 18.28 8 21 C5.45428997 17.88691765 3.86716071 14.76474006 2.3125 11.0625 C1.65701172 9.53302734 1.65701172 9.53302734 0.98828125 7.97265625 C0.03041532 5.0914864 -0.20480497 3.00565131 0 0 Z " fill="#E0C8A2" transform="translate(162,244)"/>
<path d="M0 0 C0.85078125 0.04833984 1.7015625 0.09667969 2.578125 0.14648438 C3.46757812 0.20255859 4.35703125 0.25863281 5.2734375 0.31640625 C6.170625 0.36861328 7.0678125 0.42082031 7.9921875 0.47460938 C10.21127762 0.60444975 12.42993621 0.73941964 14.6484375 0.87890625 C11.02497681 3.29454671 8.33239768 3.17672294 4.1484375 3.12890625 C3.47167969 3.13664062 2.79492188 3.144375 2.09765625 3.15234375 C-1.60075507 3.13775436 -3.19759587 2.98155067 -6.3515625 0.87890625 C-3.94721244 -0.32326878 -2.66774881 -0.16006493 0 0 Z " fill="#E9DAC0" transform="translate(194.3515625,300.12109375)"/>
<path d="M0 0 C1.32 0.33 2.64 0.66 4 1 C3.34 5.95 2.68 10.9 2 16 C1.67 16 1.34 16 1 16 C0.67 10.72 0.34 5.44 0 0 Z " fill="#E3CBA1" transform="translate(76,216)"/>
<path d="M0 0 C0.66 0.33 1.32 0.66 2 1 C1.5625 3.25 1.5625 3.25 0 6 C-2.85200294 7.73600179 -5.7889302 9.07741651 -9 10 C-9.66 9.67 -10.32 9.34 -11 9 C-7.37 6.03 -3.74 3.06 0 0 Z " fill="#E2C79A" transform="translate(133,93)"/>
<path d="M0 0 C1.34937238 5.03138075 1.34937238 5.03138075 0 8 C-1.90047954 9.84240933 -3.89091152 11.38452797 -6 13 C-6 9.32965255 -4.9247108 7.9000569 -3 4.8125 C-2.443125 3.91144531 -1.88625 3.01039063 -1.3125 2.08203125 C-0.6628125 1.05142578 -0.6628125 1.05142578 0 0 Z " fill="#E3CAA3" transform="translate(83,147)"/>
<path d="M0 0 C0.66 0.99 1.32 1.98 2 3 C0.60030802 8.79407377 -2.55754623 13.1745537 -7 17 C-5.24009216 11.08030998 -2.60305395 5.58365008 0 0 Z " fill="#E2CCA7" transform="translate(264,210)"/>
<path d="M0 0 C0.33 0.66 0.66 1.32 1 2 C0.3125 4.0625 0.3125 4.0625 -1 6 C-2.32594105 6.36162029 -3.65938457 6.69728039 -5 7 C-5.33 7.99 -5.66 8.98 -6 10 C-7.65 10.33 -9.3 10.66 -11 11 C-9.625 9 -9.625 9 -8 7 C-7.34 7 -6.68 7 -6 7 C-6 6.34 -6 5.68 -6 5 C-5.34 5 -4.68 5 -4 5 C-4 4.34 -4 3.68 -4 3 C-3.34 3 -2.68 3 -2 3 C-2 2.34 -2 1.68 -2 1 C-1.34 0.67 -0.68 0.34 0 0 Z " fill="#E4CFA3" transform="translate(121,103)"/>
<path d="M0 0 C3.3 0.99 6.6 1.98 10 3 C6.80106814 5.13262124 4.77001757 5.59021548 1 6 C0.67 5.67 0.34 5.34 0 5 C0 3.35 0 1.7 0 0 Z " fill="#E1C896" transform="translate(179,416)"/>
<path d="M0 0 C2 1 2 1 3 3 C1.02 3.33 -0.96 3.66 -3 4 C-3.33 4.99 -3.66 5.98 -4 7 C-4.99 7.66 -5.98 8.32 -7 9 C-8.32 8.67 -9.64 8.34 -11 8 C-7.37 5.36 -3.74 2.72 0 0 Z " fill="#E2C9A0" transform="translate(146,84)"/>
<path d="M0 0 C0.99 0.495 0.99 0.495 2 1 C3.85831876 6.78143614 4.25181858 11.95635404 4 18 C2.05116862 15.07675293 1.51920273 13.48916982 0.875 10.125 C0.70742188 9.28195312 0.53984375 8.43890625 0.3671875 7.5703125 C0.00121155 5.00848085 -0.06482904 2.58390011 0 0 Z " fill="#E3CEA9" transform="translate(55,287)"/>
<path d="M0 0 C2.47186455 2.96346786 3.66248361 5.54041689 4.6875 9.25 C4.93886719 10.14203125 5.19023437 11.0340625 5.44921875 11.953125 C5.72185547 12.96632812 5.72185547 12.96632812 6 14 C4 13 4 13 2.875 9.9375 C2.58625 8.968125 2.2975 7.99875 2 7 C0.68 7.33 -0.64 7.66 -2 8 C-1.125 2.25 -1.125 2.25 0 0 Z " fill="#E2C99C" transform="translate(182,240)"/>
<path d="M0 0 C-1.21918383 3.6575515 -2.84071298 4.42328869 -6.14453125 6.21484375 C-8.51473693 7.217815 -10.45898646 7.30800164 -13 7 C-10.84985117 3.77477676 -9.93845623 3.26937837 -6.5 1.8125 C-5.7059375 1.46832031 -4.911875 1.12414062 -4.09375 0.76953125 C-2 0 -2 0 0 0 Z " fill="#DDC89C" transform="translate(350,429)"/>
<path d="M0 0 C0 6.05912994 -3.23186087 11.72735404 -6 17 C-7.12377697 13.69564916 -6.89554742 11.9493138 -5.5625 8.75 C-5.27503906 8.04359375 -4.98757812 7.3371875 -4.69140625 6.609375 C-4.46324219 6.07828125 -4.23507813 5.5471875 -4 5 C-3.34 5 -2.68 5 -2 5 C-2 3.68 -2 2.36 -2 1 C-1.34 0.67 -0.68 0.34 0 0 Z " fill="#E4CEA2" transform="translate(229,260)"/>
<path d="M0 0 C3 1 3 1 4.203125 3.14453125 C4.54859375 4.02496094 4.8940625 4.90539062 5.25 5.8125 C5.60578125 6.68519531 5.9615625 7.55789062 6.328125 8.45703125 C7.03604136 11.13641236 6.9337741 12.43212123 6 15 C5.67 15 5.34 15 5 15 C4.01 11.37 3.02 7.74 2 4 C1.34 4 0.68 4 0 4 C0 2.68 0 1.36 0 0 Z " fill="#DFCBA4" transform="translate(432,167)"/>
<path d="M0 0 C1 3 1 3 -0.625 6.625 C-2.25372307 9.33004706 -2.64722937 9.87973729 -5.75 10.9375 C-6.4925 10.958125 -7.235 10.97875 -8 11 C-7.59007812 10.45730469 -7.18015625 9.91460937 -6.7578125 9.35546875 C-6.21898437 8.64003906 -5.68015625 7.92460937 -5.125 7.1875 C-4.59132813 6.47980469 -4.05765625 5.77210938 -3.5078125 5.04296875 C-2.29185219 3.39543703 -1.13583859 1.70375789 0 0 Z " fill="#E1CA9F" transform="translate(393,362)"/>
<path d="M0 0 C0.99 0 1.98 0 3 0 C3.16435547 0.95712891 3.16435547 0.95712891 3.33203125 1.93359375 C3.49058594 2.75988281 3.64914063 3.58617187 3.8125 4.4375 C3.96332031 5.26121094 4.11414063 6.08492188 4.26953125 6.93359375 C4.51058594 7.61550781 4.75164062 8.29742187 5 9 C5.99 9.33 6.98 9.66 8 10 C8 10.66 8 11.32 8 12 C4.5659298 10.61482883 3.29977978 9.34555636 1.75 6 C1.41484375 5.29875 1.0796875 4.5975 0.734375 3.875 C0 2 0 2 0 0 Z " fill="#E3CDA5" transform="translate(180,289)"/>
<path d="M0 0 C0.99 0.33 1.98 0.66 3 1 C1.52485505 3.1695061 0.0451561 5.33563707 -1.4375 7.5 C-1.85837891 8.12003906 -2.27925781 8.74007812 -2.71289062 9.37890625 C-3.78308137 10.93710398 -4.88879518 12.47078051 -6 14 C-6.33 14 -6.66 14 -7 14 C-7 12.35 -7 10.7 -7 9 C-6.01 8.67 -5.02 8.34 -4 8 C-4 7.34 -4 6.68 -4 6 C-3.34 6 -2.68 6 -2 6 C-2 5.01 -2 4.02 -2 3 C-1.34 3 -0.68 3 0 3 C0 2.01 0 1.02 0 0 Z " fill="#E5CCAA" transform="translate(109,148)"/>
<path d="M0 0 C0.99 0.33 1.98 0.66 3 1 C1.87895467 2.31587941 0.75303035 3.62760353 -0.375 4.9375 C-1.00148438 5.66839844 -1.62796875 6.39929688 -2.2734375 7.15234375 C-4 9 -4 9 -6 10 C-5.67 8.35 -5.34 6.7 -5 5 C-4.01 5 -3.02 5 -2 5 C-1.855625 4.360625 -1.71125 3.72125 -1.5625 3.0625 C-1 1 -1 1 0 0 Z " fill="#E4CFAB" transform="translate(397,391)"/>
<path d="M0 0 C0.66 0.33 1.32 0.66 2 1 C2 1.99 2 2.98 2 4 C2.66 4 3.32 4 4 4 C8 10.75 8 10.75 8 13 C7.01 13 6.02 13 5 13 C4.7525 12.278125 4.505 11.55625 4.25 10.8125 C3.09709506 7.87365454 3.09709506 7.87365454 0.8125 5.375 C0.214375 4.59125 -0.38375 3.8075 -1 3 C-0.67 2.01 -0.34 1.02 0 0 Z " fill="#E2CCA0" transform="translate(99,343)"/>
<path d="M0 0 C0.99 0.33 1.98 0.66 3 1 C2.67 1.66 2.34 2.32 2 3 C1.34 3 0.68 3 0 3 C0 3.66 0 4.32 0 5 C-0.66 5 -1.32 5 -2 5 C-2.28875 5.639375 -2.5775 6.27875 -2.875 6.9375 C-4 9 -4 9 -6 10 C-6 9.01 -6 8.02 -6 7 C-5.34 7 -4.68 7 -4 7 C-4.33 5.35 -4.66 3.7 -5 2 C-3.35 2 -1.7 2 0 2 C0 1.34 0 0.68 0 0 Z " fill="#E2CAA2" transform="translate(118,137)"/>
<path d="M0 0 C0.33 0.66 0.66 1.32 1 2 C-0.3125 4.625 -0.3125 4.625 -2 7 C-2.66 7 -3.32 7 -4 7 C-4.33 7.99 -4.66 8.98 -5 10 C-6.32 9.67 -7.64 9.34 -9 9 C-7.71034824 7.62437146 -6.37310707 6.29233607 -5 5 C-4.34 5 -3.68 5 -3 5 C-3 4.34 -3 3.68 -3 3 C-2.34 3 -1.68 3 -1 3 C-0.67 2.01 -0.34 1.02 0 0 Z " fill="#E1CA9E" transform="translate(376,381)"/>
<path d="M0 0 C0.66 0 1.32 0 2 0 C0.44298069 4.67105792 -2.08447373 8.08705685 -5 12 C-5.33 10.68 -5.66 9.36 -6 8 C-5.34 8 -4.68 8 -4 8 C-3.67 6.68 -3.34 5.36 -3 4 C-2.34 4 -1.68 4 -1 4 C-0.67 2.68 -0.34 1.36 0 0 Z " fill="#E2CDA7" transform="translate(416,368)"/>
<path d="M0 0 C0.66 0.33 1.32 0.66 2 1 C1.855625 1.680625 1.71125 2.36125 1.5625 3.0625 C0.93054091 6.36273082 0.45686059 9.67144426 0 13 C-0.99 13 -1.98 13 -3 13 C-2.68817931 11.58318366 -2.37551263 10.16655349 -2.0625 8.75 C-1.88847656 7.96109375 -1.71445312 7.1721875 -1.53515625 6.359375 C-1.052444 4.23121297 -0.53836822 2.11467158 0 0 Z " fill="#E2C9A1" transform="translate(61,194)"/>
<path d="M0 0 C0.33 0.66 0.66 1.32 1 2 C0.34 2 -0.32 2 -1 2 C-1.165 2.639375 -1.33 3.27875 -1.5 3.9375 C-3 6 -3 6 -4.9140625 6.48828125 C-6.93575155 6.7275978 -8.96841939 6.86893028 -11 7 C-7.53258866 4.04250209 -4.13126473 1.92151848 0 0 Z " fill="#E1C89C" transform="translate(343,407)"/>
<path d="M0 0 C3.3125 0.1875 3.3125 0.1875 7 1 C8.9375 3.5625 8.9375 3.5625 10 6 C6.62972148 6 5.93297304 5.50175992 3.3125 3.5625 C2.68988281 3.11003906 2.06726563 2.65757812 1.42578125 2.19140625 C0.95527344 1.79824219 0.48476562 1.40507812 0 1 C0 0.67 0 0.34 0 0 Z " fill="#E4CEA9" transform="translate(125,410)"/>
<path d="M0 0 C1.13199353 0.9080162 2.25532363 1.82683826 3.375 2.75 C4.00148438 3.26046875 4.62796875 3.7709375 5.2734375 4.296875 C7.08312318 6.08199481 8.00117455 7.67949644 9 10 C5.32408105 8.9789114 4.0660202 8.08564783 1.6875 5 C0 2 0 2 0 0 Z " fill="#E5D3AD" transform="translate(392,110)"/>
<path d="M0 0 C1.23922223 3.71766668 0.57018942 5.43889537 -0.4375 9.1875 C-0.72496094 10.27417969 -1.01242188 11.36085937 -1.30859375 12.48046875 C-1.65083984 13.72763672 -1.65083984 13.72763672 -2 15 C-2.33 15 -2.66 15 -3 15 C-3.37379162 5.46831364 -3.37379162 5.46831364 -1 1 C-0.67 0.67 -0.34 0.34 0 0 Z " fill="#E6D4B0" transform="translate(83,202)"/>
<path d="M0 0 C-1.28716647 1.00578589 -2.57988658 2.00446798 -3.875 3 C-4.95394531 3.8353125 -4.95394531 3.8353125 -6.0546875 4.6875 C-8 6 -8 6 -10 6 C-10 5.34 -10 4.68 -10 4 C-9.34 4 -8.68 4 -8 4 C-8 3.34 -8 2.68 -8 2 C-7.34 2 -6.68 2 -6 2 C-6 1.34 -6 0.68 -6 0 C-3 -1 -3 -1 0 0 Z " fill="#E0CBA2" transform="translate(379,412)"/>
<path d="M0 0 C0.66 0.99 1.32 1.98 2 3 C0.96618857 6.75931429 -0.16972619 8.16972619 -3 11 C-2.67 8.03 -2.34 5.06 -2 2 C-1.34 2 -0.68 2 0 2 C0 1.34 0 0.68 0 0 Z " fill="#E2C89F" transform="translate(426,350)"/>
<path d="M0 0 C0.66 0 1.32 0 2 0 C2 0.99 2 1.98 2 3 C-3.94 3 -9.88 3 -16 3 C-16.33 2.34 -16.66 1.68 -17 1 C-15.85660156 1.01160156 -14.71320313 1.02320313 -13.53515625 1.03515625 C-12.04427246 1.04453288 -10.55338691 1.05363321 -9.0625 1.0625 C-8.30775391 1.07087891 -7.55300781 1.07925781 -6.77539062 1.08789062 C-4.85005687 1.09652441 -2.92464419 1.05224333 -1 1 C-0.67 0.67 -0.34 0.34 0 0 Z " fill="#D2BA8F" transform="translate(375,336)"/>
<path d="M0 0 C1.55693206 2.33539809 2.90200646 4.57968756 4.1875 7.0625 C4.55230469 7.75472656 4.91710937 8.44695312 5.29296875 9.16015625 C5.52628906 9.76730469 5.75960937 10.37445313 6 11 C5.67 11.66 5.34 12.32 5 13 C3.5 11.75 3.5 11.75 2 10 C2 8.68 2 7.36 2 6 C1.01 6 0.02 6 -1 6 C-0.67 4.02 -0.34 2.04 0 0 Z " fill="#E3CBA9" transform="translate(166,202)"/>
<path d="M0 0 C0.66 0.33 1.32 0.66 2 1 C-2.36363636 5.72727273 -2.36363636 5.72727273 -5.1875 6.9375 C-5.785625 6.958125 -6.38375 6.97875 -7 7 C-7.66 6.34 -8.32 5.68 -9 5 C-7.54735962 4.1361871 -6.0876837 3.28419546 -4.625 2.4375 C-3.40683594 1.72400391 -3.40683594 1.72400391 -2.1640625 0.99609375 C-1.44992188 0.66738281 -0.73578125 0.33867188 0 0 Z " fill="#E2CEA4" transform="translate(157,78)"/>
<path d="M0 0 C2.475 0.495 2.475 0.495 5 1 C5 1.66 5 2.32 5 3 C5.66 3 6.32 3 7 3 C7.33 4.65 7.66 6.3 8 8 C6.85073734 7.04578192 5.70569459 6.08647955 4.5625 5.125 C3.92441406 4.59132813 3.28632812 4.05765625 2.62890625 3.5078125 C1 2 1 2 0 0 Z " fill="#E8D3AB" transform="translate(106,392)"/>
<path d="M0 0 C0.66 0.99 1.32 1.98 2 3 C2.66 2.67 3.32 2.34 4 2 C3.67 4.97 3.34 7.94 3 11 C0.82905523 8.82905523 0.5137 7.84247144 -0.1875 4.9375 C-0.36667969 4.22464844 -0.54585937 3.51179688 -0.73046875 2.77734375 C-0.81941406 2.19082031 -0.90835938 1.60429687 -1 1 C-0.67 0.67 -0.34 0.34 0 0 Z " fill="#E5CEA3" transform="translate(64,319)"/>
<path d="M0 0 C0.66 0.33 1.32 0.66 2 1 C0.68938409 5.23429756 -0.94356259 9.07407404 -3 13 C-3.33 13 -3.66 13 -4 13 C-4 11.02 -4 9.04 -4 7 C-3.34 7 -2.68 7 -2 7 C-2 6.01 -2 5.02 -2 4 C-1.34 4 -0.68 4 0 4 C0 2.68 0 1.36 0 0 Z " fill="#E6D3AB" transform="translate(95,170)"/>
<path d="M0 0 C0.66 0.33 1.32 0.66 2 1 C0.7260411 3.03833424 -0.61061923 5.03852126 -2 7 C-2.66 7 -3.32 7 -4 7 C-4 7.66 -4 8.32 -4 9 C-4.99 8.67 -5.98 8.34 -7 8 C-6.67 7.34 -6.34 6.68 -6 6 C-5.34 6 -4.68 6 -4 6 C-4 5.34 -4 4.68 -4 4 C-3.34 4 -2.68 4 -2 4 C-2 3.34 -2 2.68 -2 2 C-1.34 2 -0.68 2 0 2 C0 1.34 0 0.68 0 0 Z " fill="#E5CDA7" transform="translate(108,115)"/>
<path d="M0 0 C0.33 0 0.66 0 1 0 C0.03644647 9.41002278 0.03644647 9.41002278 -1 14 C-1.33 14 -1.66 14 -2 14 C-2.05410687 12.22950311 -2.09284119 10.45853151 -2.125 8.6875 C-2.14820313 7.70136719 -2.17140625 6.71523438 -2.1953125 5.69921875 C-2 3 -2 3 0 0 Z " fill="#E3CBA5" transform="translate(449,292)"/>
<path d="M0 0 C0.66 1.32 1.32 2.64 2 4 C2.66 4 3.32 4 4 4 C4 5.65 4 7.3 4 9 C3.01 9.495 3.01 9.495 2 10 C1.01 7.03 0.02 4.06 -1 1 C-0.67 0.67 -0.34 0.34 0 0 Z " fill="#DEC89F" transform="translate(177,279)"/>
<path d="M0 0 C0 0.66 0 1.32 0 2 C-4.455 3.485 -4.455 3.485 -9 5 C-9.33 4.01 -9.66 3.02 -10 2 C-3.375 0 -3.375 0 0 0 Z M-11 5 C-9 6 -9 6 -9 6 Z " fill="#E2C89A" transform="translate(199,62)"/>
<path d="M0 0 C2.18994248 3.28491373 2.35277339 4.83095639 2.625 8.6875 C2.69976562 9.68136719 2.77453125 10.67523438 2.8515625 11.69921875 C2.92503906 12.83810547 2.92503906 12.83810547 3 14 C0.19954377 10.85408067 -0.35261589 8.932936 -0.1875 4.75 C-0.16042969 3.85796875 -0.13335937 2.9659375 -0.10546875 2.046875 C-0.07066406 1.37140625 -0.03585938 0.6959375 0 0 Z " fill="#E2CA9D" transform="translate(82,302)"/>
<path d="M0 0 C2.31 0 4.62 0 7 0 C7.33 0.66 7.66 1.32 8 2 C8.99 2.66 9.98 3.32 11 4 C6.94393835 3.53199289 3.53411321 3.12046792 0 1 C0 0.67 0 0.34 0 0 Z " fill="#DDC69D" transform="translate(319,90)"/>
<path d="M0 0 C0.33 0.66 0.66 1.32 1 2 C0.22265625 4.1640625 0.22265625 4.1640625 -0.9375 6.625 C-1.31777344 7.44226563 -1.69804687 8.25953125 -2.08984375 9.1015625 C-2.39019531 9.72804687 -2.69054687 10.35453125 -3 11 C-3.33 11 -3.66 11 -4 11 C-3.38461538 3.49230769 -3.38461538 3.49230769 -1.4375 1 C-0.963125 0.67 -0.48875 0.34 0 0 Z " fill="#E2CFA7" transform="translate(249,214)"/>
<path d="M0 0 C2.98170547 1.98780365 4.81831749 3.56237816 6 7 C5.67 7.99 5.34 8.98 5 10 C2.08772731 6.71195019 0.50298788 4.40114397 0 0 Z " fill="#E0C9A3" transform="translate(100,382)"/>
<path d="M0 0 C0.33 0 0.66 0 1 0 C1.3227506 4.62609198 0.84450614 7.28026121 -2 11 C-2.66 11 -3.32 11 -4 11 C-2.7874262 7.27566618 -1.49140021 3.62197194 0 0 Z " fill="#E2CCA5" transform="translate(229,207)"/>
<path d="M0 0 C0.99 0 1.98 0 3 0 C1.25 5.75 1.25 5.75 -1 8 C-1.04241723 5.66705225 -1.04092937 3.33297433 -1 1 C-0.67 0.67 -0.34 0.34 0 0 Z " fill="#E1CAA4" transform="translate(429,345)"/>
<path d="M0 0 C1.08892712 2.83121051 0.96109941 4.16532751 0.25 7.1875 C-0.36875 8.5796875 -0.36875 8.5796875 -1 10 C-1.99 10.33 -2.98 10.66 -4 11 C-2.95902388 7.13351728 -1.96301592 3.50538557 0 0 Z " fill="#E5CFA9" transform="translate(222,223)"/>
<path d="M0 0 C1.9451 2.91765 2.45276317 4.62537285 3 8 C2.01 8.66 1.02 9.32 0 10 C0 6.7 0 3.4 0 0 Z " fill="#DEC494" transform="translate(57,208)"/>
<path d="M0 0 C1 3 1 3 0 6 C-1.65 6.33 -3.3 6.66 -5 7 C-1.125 1.125 -1.125 1.125 0 0 Z " fill="#E5CCA1" transform="translate(94,132)"/>
<path d="M0 0 C0.75 1.75 0.75 1.75 1 4 C-0.8125 6.25 -0.8125 6.25 -3 8 C-3.66 8 -4.32 8 -5 8 C-3.62845496 5.04590299 -2.01136276 2.55991624 0 0 Z " fill="#E5C9A2" transform="translate(100,124)"/>
<path d="M0 0 C-1.28965176 1.37562854 -2.62689293 2.70766393 -4 4 C-4.66 4 -5.32 4 -6 4 C-6.33 4.66 -6.66 5.32 -7 6 C-7 4.35 -7 2.7 -7 1 C-4.53721199 -0.231394 -2.7204945 -0.07159196 0 0 Z " fill="#E5CBA4" transform="translate(146,114)"/>
<path d="M0 0 C2.64 1.98 5.28 3.96 8 6 C7.34 6.66 6.68 7.32 6 8 C5.67 7.01 5.34 6.02 5 5 C2.98491642 4.26676204 2.98491642 4.26676204 1 4 C0.67 2.68 0.34 1.36 0 0 Z " fill="#E3CBA3" transform="translate(378,98)"/>
<path d="M0 0 C2.64 1.65 5.28 3.3 8 5 C5 6 5 6 2.3125 4.75 C1.549375 4.1725 0.78625 3.595 0 3 C0 2.01 0 1.02 0 0 Z " fill="#E2CFAA" transform="translate(366,89)"/>
<path d="M0 0 C-3.1749094 1.9078584 -5.10585211 2.1609041 -8.75 1.625 C-9.54921875 1.51414063 -10.3484375 1.40328125 -11.171875 1.2890625 C-11.77515625 1.19367187 -12.3784375 1.09828125 -13 1 C-13 0.67 -13 0.34 -13 0 C-8.34462607 -0.83796731 -4.62921525 -1.0161692 0 0 Z " fill="#E5CFA5" transform="translate(228,57)"/>
<path d="M0 0 C3.95820859 0.56545837 6.6659053 1.80902348 10 4 C8 5 8 5 6.0546875 4.44140625 C5.33539063 4.15136719 4.61609375 3.86132812 3.875 3.5625 C3.15054688 3.27503906 2.42609375 2.98757813 1.6796875 2.69140625 C0.84824219 2.34916016 0.84824219 2.34916016 0 2 C0 1.34 0 0.68 0 0 Z " fill="#DEC8A0" transform="translate(160,407)"/>
<path d="M0 0 C1.32 0 2.64 0 4 0 C4.33 2.31 4.66 4.62 5 7 C3.29115995 5.37660195 1.62553283 3.70680947 0 2 C0 1.34 0 0.68 0 0 Z " fill="#E2CDA5" transform="translate(84,363)"/>
<path d="M0 0 C0.66 0 1.32 0 2 0 C1.01 3.3 0.02 6.6 -1 10 C-1.66 8.68 -2.32 7.36 -3 6 C-2.67 5.34 -2.34 4.68 -2 4 C-1.34 4 -0.68 4 0 4 C0 2.68 0 1.36 0 0 Z " fill="#E3CCA8" transform="translate(438,327)"/>
<path d="M0 0 C0.103125 0.639375 0.20625 1.27875 0.3125 1.9375 C0.539375 2.618125 0.76625 3.29875 1 4 C1.99 4.33 2.98 4.66 4 5 C3.67 6.98 3.34 8.96 3 11 C0.87953208 7.46588679 0.46800711 4.05606165 0 0 Z " fill="#E7D3AA" transform="translate(59,305)"/>
<path d="M0 0 C0.66 0.33 1.32 0.66 2 1 C1.40138258 3.35171131 0.73075648 5.6859378 0 8 C-0.99 8.495 -0.99 8.495 -2 9 C-1.125 2.25 -1.125 2.25 0 0 Z " fill="#E3CFA4" transform="translate(214,290)"/>
<path d="M0 0 C0.66 0.99 1.32 1.98 2 3 C1.01 4.98 0.02 6.96 -1 9 C-1.66 9 -2.32 9 -3 9 C-2.01 6.03 -1.02 3.06 0 0 Z " fill="#E2CFA4" transform="translate(209,253)"/>
<path d="M0 0 C0.93065133 2.60582371 1.14917407 3.64198224 0.0625 6.25 C-0.4634375 7.11625 -0.4634375 7.11625 -1 8 C-1.99 8 -2.98 8 -4 8 C-2.87548273 5.0280615 -1.77706209 2.66559313 0 0 Z " fill="#E8CDAC" transform="translate(88,139)"/>
<path d="M0 0 C1.65 0.99 3.3 1.98 5 3 C4.34 3.66 3.68 4.32 3 5 C2.67 4.67 2.34 4.34 2 4 C1.34 4.66 0.68 5.32 0 6 C-0.38218767 4.34385343 -0.71395102 2.67542976 -1 1 C-0.67 0.67 -0.34 0.34 0 0 Z " fill="#E0C8A6" transform="translate(357,83)"/>
<path d="M0 0 C0.99 0.33 1.98 0.66 3 1 C1.37660195 2.70884005 -0.29319053 4.37446717 -2 6 C-2.66 6 -3.32 6 -4 6 C-4 5.01 -4 4.02 -4 3 C-3.01 3 -2.02 3 -1 3 C-0.67 2.01 -0.34 1.02 0 0 Z " fill="#E5D1B0" transform="translate(385,403)"/>
<path d="M0 0 C-0.33 1.32 -0.66 2.64 -1 4 C-2.98 4.33 -4.96 4.66 -7 5 C-2.25 0 -2.25 0 0 0 Z " fill="#E4CB9F" transform="translate(367,391)"/>
<path d="M0 0 C1.37562854 1.28965176 2.70766393 2.62689293 4 4 C4 4.66 4 5.32 4 6 C4.66 6 5.32 6 6 6 C6 6.66 6 7.32 6 8 C3.5625 7.375 3.5625 7.375 1 6 C0.1875 2.875 0.1875 2.875 0 0 Z " fill="#E2D3AB" transform="translate(108,357)"/>
<path d="M0 0 C2.50298434 2.93828597 3.46930939 5.17902761 4 9 C3.01 9 2.02 9 1 9 C-0.14466615 5.56600155 0 3.69214898 0 0 Z " fill="#E3CCA7" transform="translate(188,254)"/>
<path d="M0 0 C1.32 0.33 2.64 0.66 4 1 C1.69 2.65 -0.62 4.3 -3 6 C-2.67 4.68 -2.34 3.36 -2 2 C-1.34 2 -0.68 2 0 2 C0 1.34 0 0.68 0 0 Z " fill="#E2CBA3" transform="translate(132,122)"/>
</svg>
